<svg width="553" height="553" viewBox="0 0 553 553" fill="none" xmlns="http://www.w3.org/2000/svg">
<path d="M95.0469 69.125H120.969V103.688C120.969 110.562 123.7 117.156 128.561 122.017C133.422 126.878 140.016 129.609 146.891 129.609C153.766 129.609 160.359 126.878 165.22 122.017C170.081 117.156 172.812 110.562 172.812 103.688V86.4062H155.531V103.688C155.531 105.979 154.621 108.177 153 109.797C151.38 111.418 149.182 112.328 146.891 112.328C144.599 112.328 142.401 111.418 140.781 109.797C139.16 108.177 138.25 105.979 138.25 103.688V51.8438C138.25 47.2605 140.071 42.8649 143.312 39.6241C146.552 36.3832 150.948 34.5625 155.531 34.5625C160.115 34.5625 164.51 36.3832 167.751 39.6241C170.992 42.8649 172.812 47.2605 172.812 51.8438H155.531V69.125H362.906V120.969C362.906 123.26 363.817 125.458 365.437 127.079C367.057 128.699 369.255 129.609 371.547 129.609H423.391V233.297H440.672V120.969C440.672 119.834 440.448 118.71 440.014 117.662C439.58 116.614 438.944 115.661 438.141 114.859L377.657 54.3744C376.854 53.572 375.902 52.9356 374.854 52.5014C373.805 52.0672 372.682 51.8437 371.547 51.8438H190.094C190.094 42.6772 186.452 33.8861 179.971 27.4044C173.489 20.9226 164.698 17.2813 155.531 17.2812C146.365 17.2813 137.574 20.9226 131.092 27.4044C124.61 33.8861 120.969 42.6772 120.969 51.8438H86.4062C84.1146 51.8438 81.9168 52.7541 80.2964 54.3745C78.676 55.995 77.7656 58.1927 77.7656 60.4844V267.859H95.0469V69.125ZM380.188 81.3439L411.172 112.328H380.188V81.3439Z" fill="white" fill-opacity="0.05"/>
<path d="M423.391 492.516H362.906V509.797H432.031C434.323 509.797 436.521 508.887 438.141 507.266C439.762 505.646 440.672 503.448 440.672 501.156V388.828H423.391V492.516Z" fill="white" fill-opacity="0.05"/>
<path d="M181.453 414.75C179.161 414.75 176.964 415.66 175.343 417.281C173.723 418.901 172.812 421.099 172.812 423.391V466.594C172.812 468.885 173.723 471.083 175.343 472.704C176.964 474.324 179.161 475.234 181.453 475.234H233.297C235.589 475.234 237.786 474.324 239.407 472.704C241.027 471.083 241.938 468.885 241.938 466.594V423.391C241.938 421.099 241.027 418.901 239.407 417.281C237.786 415.66 235.589 414.75 233.297 414.75H181.453ZM224.656 457.953H190.094V432.031H224.656V457.953Z" fill="white" fill-opacity="0.05"/>
<path d="M112.328 362.906H129.609V380.188H112.328V362.906Z" fill="white" fill-opacity="0.05"/>
<path d="M328.344 466.594C328.344 445.124 316.472 423.391 293.781 423.391C271.091 423.391 259.219 445.124 259.219 466.594C259.219 471.438 257.353 473.521 253.134 477.773C248.408 482.531 241.938 489.049 241.938 501.406C241.913 507.417 243.567 513.316 246.715 518.438H155.531V406.109C155.531 403.818 154.621 401.62 153 400C151.38 398.379 149.182 397.469 146.891 397.469H95.0469C92.7552 397.469 90.5575 398.379 88.937 400C87.3166 401.62 86.4062 403.818 86.4062 406.109V518.438H60.4844V365.857L164.172 320.494L267.859 365.857V414.75H285.141V373.418L298.958 379.466C300.273 380.042 301.711 380.28 303.142 380.161C304.573 380.041 305.951 379.567 307.152 378.781C308.354 377.995 309.34 376.922 310.023 375.659C310.706 374.396 311.063 372.983 311.062 371.547V328.344C311.062 326.664 310.573 325.02 309.653 323.615C308.734 322.209 307.425 321.101 305.886 320.428L167.636 259.943C166.543 259.466 165.364 259.219 164.172 259.219C162.98 259.219 161.8 259.466 160.708 259.943L22.4581 320.428C20.9191 321.101 19.6098 322.209 18.6904 323.615C17.7709 325.02 17.2813 326.664 17.2812 328.344V371.547C17.2813 372.982 17.6389 374.395 18.3218 375.658C19.0047 376.92 19.9914 377.993 21.1927 378.778C22.394 379.564 23.7721 380.038 25.2026 380.157C26.633 380.277 28.0707 380.038 29.3857 379.463L43.2031 373.418V518.438H17.2812V535.719H311.062C317.959 535.719 326.207 532.616 332.588 527.618C336.643 524.557 339.931 520.596 342.194 516.047C344.456 511.498 345.631 506.486 345.625 501.406C345.625 489.049 339.154 482.531 334.43 477.773C330.208 473.521 328.344 471.438 328.344 466.594ZM34.5625 358.335V333.995L164.172 277.291L293.781 333.995V358.335L285.141 354.555V354.266H284.48L167.636 303.147C166.543 302.669 165.364 302.422 164.172 302.422C162.98 302.422 161.8 302.669 160.708 303.147L43.8641 354.266H43.2031V354.555L34.5625 358.335ZM103.688 414.75H138.25V518.438H103.688V414.75ZM311.062 518.438H276.5C271.741 518.438 259.219 513.2 259.219 501.406C259.219 496.381 261.112 494.262 265.397 489.947C270.082 485.227 276.5 478.764 276.5 466.594C276.5 446.09 287.804 440.672 293.781 440.672C307.451 440.672 311.062 457.629 311.062 466.594C311.062 478.764 317.479 485.227 322.165 489.947C326.448 494.268 328.343 496.381 328.343 501.406C328.344 513.2 315.815 518.438 311.062 518.438Z" fill="white" fill-opacity="0.05"/>
<path d="M505.965 248.94L526.388 218.74C528.313 215.92 529.662 212.748 530.357 209.406C531.053 206.064 531.082 202.618 530.442 199.265C529.802 195.911 528.506 192.718 526.628 189.867C524.751 187.016 522.328 184.564 519.501 182.651C516.673 180.739 513.495 179.404 510.15 178.723C506.805 178.042 503.358 178.029 500.008 178.683C496.658 179.338 493.47 180.648 490.627 182.538C487.784 184.428 485.343 186.861 483.443 189.697L343.067 397.265C342.318 398.376 341.837 399.647 341.663 400.976L336.616 439.287C336.407 440.878 336.645 442.496 337.303 443.959C337.961 445.422 339.014 446.673 340.343 447.572C341.672 448.471 343.225 448.982 344.828 449.048C346.431 449.114 348.021 448.732 349.419 447.945L383.096 428.996C384.264 428.338 385.262 427.418 386.012 426.307L495.986 263.695L507.881 276.955L472.936 328.627L487.25 338.307L525.975 281.047C527.055 279.451 527.569 277.54 527.438 275.617C527.306 273.695 526.536 271.872 525.25 270.438L505.965 248.94ZM497.756 199.378C498.39 198.433 499.203 197.622 500.151 196.992C501.099 196.362 502.161 195.926 503.278 195.708C504.395 195.49 505.544 195.494 506.658 195.722C507.773 195.949 508.833 196.394 509.775 197.031C510.717 197.669 511.525 198.486 512.151 199.436C512.776 200.387 513.208 201.451 513.422 202.569C513.635 203.686 513.625 204.835 513.393 205.949C513.162 207.063 512.712 208.12 512.07 209.06L494.068 235.68L482.173 222.419L497.756 199.378ZM372.843 414.937L356.003 424.41L358.528 405.255L381.587 371.158L395.903 380.839L372.843 414.937ZM405.583 366.525L391.268 356.843L472.198 237.17L484.091 250.434L405.583 366.525Z" fill="white" fill-opacity="0.05"/>
<path d="M146.891 155.531H164.172V172.812H146.891V155.531Z" fill="white" fill-opacity="0.05"/>
<path d="M181.453 155.531H388.828V172.812H181.453V155.531Z" fill="white" fill-opacity="0.05"/>
<path d="M129.609 190.094H388.828V207.375H129.609V190.094Z" fill="white" fill-opacity="0.05"/>
<path d="M129.609 224.656H388.828V241.938H129.609V224.656Z" fill="white" fill-opacity="0.05"/>
<path d="M259.219 259.219H388.828V276.5H259.219V259.219Z" fill="white" fill-opacity="0.05"/>
<path d="M328.344 293.781H354.266V311.062H328.344V293.781Z" fill="white" fill-opacity="0.05"/>
</svg>
