<svg width="69" height="69" viewBox="0 0 69 69" fill="none" xmlns="http://www.w3.org/2000/svg">
<g clip-path="url(#clip0)">
<path d="M21.5625 29.1094C21.5625 27.993 22.4676 27.0879 23.584 27.0879C24.7004 27.0879 25.6055 27.993 25.6055 29.1094V32.4785H30.9961V19.2579L23.584 12.9046L16.1719 19.2579V32.4785H21.5625V29.1094ZM20.2148 21.0234C20.2148 19.907 21.1199 19.0019 22.2363 19.0019H24.9316C26.048 19.0019 26.9531 19.907 26.9531 21.0234C26.9531 22.1398 26.048 23.0449 24.9316 23.0449H22.2363C21.1199 23.0449 20.2148 22.1398 20.2148 21.0234Z" fill="#30336B"/>
<path d="M60.6445 11.5898V4.85156C60.6445 2.24654 58.5328 0.134766 55.9277 0.134766C53.3227 0.134766 51.2109 2.24654 51.2109 4.85156V13.6113H58.623C59.7394 13.6113 60.6445 12.7062 60.6445 11.5898Z" fill="#30336B"/>
<path d="M58.623 55.3887H51.2109V64.1484C51.2109 66.7535 53.3227 68.8652 55.9277 68.8652C58.5328 68.8652 60.6445 66.7535 60.6445 64.1484V57.4102C60.6445 56.2938 59.7394 55.3887 58.623 55.3887Z" fill="#30336B"/>
<path d="M47.168 55.7174C44.4694 58.0142 41.3814 59.8594 38.0783 61.1415L36.1738 63.0461C35.0286 64.1916 33.5056 64.8224 31.8857 64.8224C30.2657 64.8224 28.7428 64.1916 27.5973 63.0459C26.9465 62.3953 26.4624 61.6224 26.1653 60.7794H10.1074C8.99102 60.7794 8.08594 59.8743 8.08594 58.7579C8.08594 57.6415 8.99102 56.7365 10.1074 56.7365H26.1651C26.4624 55.8934 26.9465 55.1205 27.5974 54.4697L29.5068 52.5603C31.0907 48.4804 33.5297 44.7257 36.6238 41.6317L47.168 31.0873V4.85156C47.168 3.11565 47.6777 1.49752 48.5521 0.134766H7.41211C3.32507 0.134766 0 3.45984 0 7.54688V61.4531C0 65.5402 3.32507 68.8652 7.41211 68.8652H48.5521C47.6777 67.5025 47.168 65.8844 47.168 64.1484V55.7174ZM9.46567 19.6812L22.2684 8.70734C23.0254 8.05858 24.1425 8.05858 24.8994 8.70734L37.7022 19.6812C38.5498 20.4078 38.6481 21.6838 37.9214 22.5315C37.5216 22.9979 36.9553 23.2374 36.3856 23.2374C35.92 23.2375 35.4523 23.0774 35.071 22.7507L35.0391 22.7232V34.5C35.0391 35.6164 34.134 36.5215 33.0176 36.5215H14.1504C13.034 36.5215 12.1289 35.6164 12.1289 34.5V22.7232L12.0968 22.7507C11.2492 23.4774 9.97306 23.3793 9.24654 22.5315C8.51988 21.6838 8.61799 20.4078 9.46567 19.6812ZM10.1074 40.5645H26.2793C27.3957 40.5645 28.3008 41.4695 28.3008 42.5859C28.3008 43.7023 27.3957 44.6074 26.2793 44.6074H10.1074C8.99102 44.6074 8.08594 43.7023 8.08594 42.5859C8.08594 41.4695 8.99102 40.5645 10.1074 40.5645ZM10.1074 48.6504H26.2793C27.3957 48.6504 28.3008 49.5555 28.3008 50.6719C28.3008 51.7883 27.3957 52.6934 26.2793 52.6934H10.1074C8.99102 52.6934 8.08594 51.7883 8.08594 50.6719C8.08594 49.5555 8.99102 48.6504 10.1074 48.6504Z" fill="#30336B"/>
<path d="M65.2384 32.0756L62.3796 34.9344L55.7091 28.2637L39.4826 44.4903C36.5897 47.3832 34.3532 50.9382 32.9891 54.7956L30.4562 57.3285C29.6668 58.118 29.6668 59.3978 30.4562 60.1873C31.2457 60.9767 32.5256 60.9767 33.315 60.1873L35.8479 57.6544C39.7053 56.2901 43.2602 54.0538 46.1532 51.161L62.3796 34.9345L62.8562 35.4109C63.6444 36.1991 63.6444 37.4816 62.8562 38.2697L52.3738 48.752C51.5844 49.5415 51.5844 50.8213 52.3738 51.6108C53.1633 52.4003 54.4432 52.4003 55.2326 51.6108L65.715 41.1285C68.0795 38.7639 68.0795 34.9166 65.715 32.552L65.2384 32.0756Z" fill="#30336B"/>
<path d="M67.6207 23.0227C65.7817 21.1837 62.7892 21.1837 60.9502 23.0227L58.5678 25.4051L65.2384 32.0756L67.6207 29.6933C69.4598 27.8542 69.4598 24.8617 67.6207 23.0227Z" fill="#30336B"/>
</g>
<defs>
<clipPath id="clip0">
<rect width="69" height="69" fill="white"/>
</clipPath>
</defs>
</svg>
